Poster: 
http://imgr.us/images/ovshq9n1kzeahnu70cup.jpg

General
Complete name : Skyfall 2012 TS x264 AAC-UNiQUE.mp4
Format : MPEG-4
Format profile : Base Media
Codec ID : isom
File size : 2.27 GiB
Duration : 2h 17mn
Overall bit rate mode : Variable
Overall bit rate : 2 369 Kbps
Encoded date : UTC 2012-11-12 10:23:37

Video
ID : 1
Format : AVC
Format/Info : Advanced Video Codec
Format profile : High@L4.1
Format settings, CABAC : Yes
Format settings, ReFrames : 3 frames
Codec ID : avc1
Codec ID/Info : Advanced Video Coding
Duration : 2h 17mn
Bit rate mode : Variable
Bit rate : 2 230 Kbps
Maximum bit rate : 40.0 Mbps
Width : 720 pixels
Height : 296 pixels
Display aspect ratio : 2.40:1
Frame rate mode : Constant
Frame rate : 25.000 fps
Color space : YUV
Chroma subsampling : 4:2:0
Bit depth : 8 bits
Scan type : Progressive
Bits/(Pixel*Frame) : 0.419
Stream size : 2.14 GiB (94%)
Writing library : x264 core 129 r2230 1cffe9f

Audio
ID : 2
Format : AAC
Format/Info : Advanced Audio Codec
Format profile : LC
Codec ID : 40
Duration : 2h 17mn
Bit rate mode : Variable
Bit rate : 135 Kbps
Maximum bit rate : 150 Kbps
Channel(s) : 2 channels
Channel positions : Front: L R
Sampling rate : 48.0 KHz
Compression mode : Lossy
Stream size : 133 MiB (6%)
Language : English
Encoded date : UTC 2012-11-12 10:24:31

Sources : Video - iLG - Thanks!
: Audio - JiiNX - Thanks!

Storyline
Bond's loyalty to M is tested as her past comes back to haunt her. As MI6 comes under attack, 007 must track down and destroy the threat, no matter how personal the cost.

iMDB: http://www.imdb.com/title/tt1074638/

Notes:

Enjoy another KICKASS UNiQUE RELEASE !!!!!!

Greets:
TEAM UNiQUE, CM8, HP, JiiNX, RESiSTANCE, TRiNiTY, DQ1, CRYS, INSPiRAL, SHOWTiME.

Screens:
 
http://imgr.us/images/ovsodhqoeibi90j1vh.png 
http://imgr.us/images/gne22pc7fkjgz0qyezpu.png 
http://imgr.us/images/mijsrswn5laybt7vwsgq.png 
http://imgr.us/images/hut7t1afun444wodbps.png 
http://imgr.us/images/xk084em944tncibeol3.png 
http://imgr.us/images/mpsnd5a7welm1sqimsn8.png
